<mxfile host="app.diagrams.net" modified="2023-09-05T09:36:34.894Z" agent="Mozilla/5.0 (X11; Linux x86_64) AppleWebKit/537.36 (KHTML, like Gecko) Chrome/116.0.0.0 Safari/537.36" etag="zPDyJXYTFqBsqWIVgY59" version="21.6.9" type="device">
  <diagram name="Page-1" id="8p-41tzVHDU2A6d6gh-D">
    <mxGraphModel dx="1362" dy="771" grid="1" gridSize="10" guides="1" tooltips="1" connect="1" arrows="1" fold="1" page="1" pageScale="1" pageWidth="1169" pageHeight="827" math="0" shadow="0">
      <root>
        <mxCell id="0" />
        <mxCell id="1" parent="0" />
        <mxCell id="7fiDD-AKE3JGjJnr2jTb-26" style="edgeStyle=orthogonalEdgeStyle;rounded=0;orthogonalLoop=1;jettySize=auto;html=1;entryX=0;entryY=0.5;entryDx=0;entryDy=0;" parent="1" source="7fiDD-AKE3JGjJnr2jTb-1" target="7fiDD-AKE3JGjJnr2jTb-3" edge="1">
          <mxGeometry relative="1" as="geometry" />
        </mxCell>
        <mxCell id="7fiDD-AKE3JGjJnr2jTb-1" value="Pull và Checkout từ nhánh &lt;b&gt;dev&lt;/b&gt;" style="rounded=0;whiteSpace=wrap;html=1;" parent="1" vertex="1">
          <mxGeometry x="54" y="222" width="120" height="60" as="geometry" />
        </mxCell>
        <mxCell id="7fiDD-AKE3JGjJnr2jTb-29" style="edgeStyle=orthogonalEdgeStyle;rounded=0;orthogonalLoop=1;jettySize=auto;html=1;entryX=0;entryY=0.5;entryDx=0;entryDy=0;" parent="1" source="7fiDD-AKE3JGjJnr2jTb-3" target="7fiDD-AKE3JGjJnr2jTb-5" edge="1">
          <mxGeometry relative="1" as="geometry" />
        </mxCell>
        <UserObject label="Commit code" link="https://git.rabiloo.net/mobile/work-flow/git-flow/-/blob/main/gitflow.md?ref_type=heads#commit-message-naming" id="7fiDD-AKE3JGjJnr2jTb-3">
          <mxCell style="rounded=0;whiteSpace=wrap;html=1;" parent="1" vertex="1">
            <mxGeometry x="139" y="352" width="90" height="40" as="geometry" />
          </mxCell>
        </UserObject>
        <mxCell id="7fiDD-AKE3JGjJnr2jTb-30" style="edgeStyle=orthogonalEdgeStyle;rounded=0;orthogonalLoop=1;jettySize=auto;html=1;entryX=0;entryY=0.5;entryDx=0;entryDy=0;" parent="1" source="7fiDD-AKE3JGjJnr2jTb-5" target="7fiDD-AKE3JGjJnr2jTb-7" edge="1">
          <mxGeometry relative="1" as="geometry" />
        </mxCell>
        <mxCell id="7fiDD-AKE3JGjJnr2jTb-5" value="rebase nhánh &lt;b&gt;dev&lt;/b&gt; vào nhánh hiện tại&amp;nbsp;" style="rounded=0;whiteSpace=wrap;html=1;" parent="1" vertex="1">
          <mxGeometry x="279" y="222" width="140" height="40" as="geometry" />
        </mxCell>
        <mxCell id="7fiDD-AKE3JGjJnr2jTb-49" style="edgeStyle=orthogonalEdgeStyle;rounded=0;orthogonalLoop=1;jettySize=auto;html=1;entryX=0;entryY=0.5;entryDx=0;entryDy=0;" parent="1" source="7fiDD-AKE3JGjJnr2jTb-7" target="7fiDD-AKE3JGjJnr2jTb-8" edge="1">
          <mxGeometry relative="1" as="geometry" />
        </mxCell>
        <mxCell id="7fiDD-AKE3JGjJnr2jTb-7" value="git push -f" style="rounded=0;whiteSpace=wrap;html=1;" parent="1" vertex="1">
          <mxGeometry x="469" y="342" width="120" height="40" as="geometry" />
        </mxCell>
        <mxCell id="qlPfx9N4xRwyqrv7Mhjt-3" style="edgeStyle=orthogonalEdgeStyle;rounded=0;orthogonalLoop=1;jettySize=auto;html=1;entryX=0.5;entryY=0;entryDx=0;entryDy=0;" parent="1" source="7fiDD-AKE3JGjJnr2jTb-8" target="qlPfx9N4xRwyqrv7Mhjt-2" edge="1">
          <mxGeometry relative="1" as="geometry" />
        </mxCell>
        <UserObject label="Tạo Merge Request" link="https://git.rabiloo.net/mobile/work-flow/git-flow/-/blob/main/gitflow.md?ref_type=heads#pull-request-naming" id="7fiDD-AKE3JGjJnr2jTb-8">
          <mxCell style="rounded=0;whiteSpace=wrap;html=1;fontStyle=0" parent="1" vertex="1">
            <mxGeometry x="659" y="227" width="140" height="40" as="geometry" />
          </mxCell>
        </UserObject>
        <mxCell id="7fiDD-AKE3JGjJnr2jTb-23" style="edgeStyle=orthogonalEdgeStyle;rounded=0;orthogonalLoop=1;jettySize=auto;html=1;entryX=0;entryY=0.5;entryDx=0;entryDy=0;" parent="1" source="7fiDD-AKE3JGjJnr2jTb-13" target="7fiDD-AKE3JGjJnr2jTb-14" edge="1">
          <mxGeometry relative="1" as="geometry" />
        </mxCell>
        <mxCell id="7fiDD-AKE3JGjJnr2jTb-13" value="Pull và Checkout từ nhánh &lt;b&gt;master&lt;/b&gt;" style="rounded=0;whiteSpace=wrap;html=1;" parent="1" vertex="1">
          <mxGeometry x="30" y="635" width="120" height="60" as="geometry" />
        </mxCell>
        <mxCell id="7fiDD-AKE3JGjJnr2jTb-54" style="edgeStyle=orthogonalEdgeStyle;rounded=0;orthogonalLoop=1;jettySize=auto;html=1;entryX=0;entryY=0.5;entryDx=0;entryDy=0;" parent="1" source="7fiDD-AKE3JGjJnr2jTb-14" target="y3Y4lg6fOU0EaFiOg16w-1" edge="1">
          <mxGeometry relative="1" as="geometry" />
        </mxCell>
        <UserObject label="Commit code" link="https://git.rabiloo.net/mobile/work-flow/git-flow/-/blob/main/gitflow.md?ref_type=heads#commit-message-naming" id="7fiDD-AKE3JGjJnr2jTb-14">
          <mxCell style="rounded=0;whiteSpace=wrap;html=1;" parent="1" vertex="1">
            <mxGeometry x="110" y="767.31" width="100" height="40" as="geometry" />
          </mxCell>
        </UserObject>
        <mxCell id="y3Y4lg6fOU0EaFiOg16w-3" style="edgeStyle=orthogonalEdgeStyle;rounded=0;orthogonalLoop=1;jettySize=auto;html=1;entryX=0;entryY=0.5;entryDx=0;entryDy=0;" edge="1" parent="1" source="7fiDD-AKE3JGjJnr2jTb-16" target="7fiDD-AKE3JGjJnr2jTb-17">
          <mxGeometry relative="1" as="geometry">
            <Array as="points">
              <mxPoint x="600" y="671" />
              <mxPoint x="600" y="553" />
            </Array>
          </mxGeometry>
        </mxCell>
        <mxCell id="y3Y4lg6fOU0EaFiOg16w-8" style="edgeStyle=orthogonalEdgeStyle;rounded=0;orthogonalLoop=1;jettySize=auto;html=1;exitX=1;exitY=0.5;exitDx=0;exitDy=0;entryX=0;entryY=0.5;entryDx=0;entryDy=0;" edge="1" parent="1" source="7fiDD-AKE3JGjJnr2jTb-16" target="7fiDD-AKE3JGjJnr2jTb-19">
          <mxGeometry relative="1" as="geometry">
            <Array as="points">
              <mxPoint x="600" y="671" />
              <mxPoint x="600" y="771" />
            </Array>
          </mxGeometry>
        </mxCell>
        <mxCell id="7fiDD-AKE3JGjJnr2jTb-16" value="git push -f" style="rounded=0;whiteSpace=wrap;html=1;" parent="1" vertex="1">
          <mxGeometry x="450" y="641" width="110" height="60" as="geometry" />
        </mxCell>
        <mxCell id="7fiDD-AKE3JGjJnr2jTb-46" style="edgeStyle=orthogonalEdgeStyle;rounded=0;orthogonalLoop=1;jettySize=auto;html=1;entryX=0;entryY=0.5;entryDx=0;entryDy=0;" parent="1" source="7fiDD-AKE3JGjJnr2jTb-17" target="7fiDD-AKE3JGjJnr2jTb-43" edge="1">
          <mxGeometry relative="1" as="geometry" />
        </mxCell>
        <UserObject label="Tạo MR vào nhánh &lt;b&gt;master&lt;/b&gt;" link="https://git.rabiloo.net/mobile/work-flow/git-flow/-/blob/main/gitflow.md?ref_type=heads#pull-request-naming" id="7fiDD-AKE3JGjJnr2jTb-17">
          <mxCell style="rounded=0;whiteSpace=wrap;html=1;" parent="1" vertex="1">
            <mxGeometry x="668" y="529.31" width="170" height="46.75" as="geometry" />
          </mxCell>
        </UserObject>
        <mxCell id="7fiDD-AKE3JGjJnr2jTb-18" value="Request reviewer&lt;br&gt;review và merge&amp;nbsp;" style="rounded=0;whiteSpace=wrap;html=1;" parent="1" vertex="1">
          <mxGeometry x="1006" y="635" width="124" height="50" as="geometry" />
        </mxCell>
        <mxCell id="7fiDD-AKE3JGjJnr2jTb-19" value="&lt;b&gt;cherry-pick&lt;/b&gt; nhánh hiện tại&lt;br&gt;Tạo MR vào nhánh &lt;b&gt;dev&lt;/b&gt;" style="rounded=0;whiteSpace=wrap;html=1;" parent="1" vertex="1">
          <mxGeometry x="668" y="735.31" width="170" height="72" as="geometry" />
        </mxCell>
        <mxCell id="7fiDD-AKE3JGjJnr2jTb-33" value="Request reviewer review và merge&amp;nbsp;" style="rounded=0;whiteSpace=wrap;html=1;" parent="1" vertex="1">
          <mxGeometry x="944" y="227" width="130" height="50" as="geometry" />
        </mxCell>
        <mxCell id="7fiDD-AKE3JGjJnr2jTb-57" style="edgeStyle=orthogonalEdgeStyle;rounded=0;orthogonalLoop=1;jettySize=auto;html=1;entryX=0.5;entryY=0;entryDx=0;entryDy=0;exitX=1;exitY=0.5;exitDx=0;exitDy=0;" parent="1" source="7fiDD-AKE3JGjJnr2jTb-43" target="7fiDD-AKE3JGjJnr2jTb-18" edge="1">
          <mxGeometry relative="1" as="geometry" />
        </mxCell>
        <UserObject label="Thêm tag cho MR" link="https://git.rabiloo.net/mobile/work-flow/git-flow/-/blob/main/gitflow.md?ref_type=heads#tag-naming" id="7fiDD-AKE3JGjJnr2jTb-43">
          <mxCell style="rounded=0;whiteSpace=wrap;html=1;" parent="1" vertex="1">
            <mxGeometry x="878" y="522.69" width="120" height="60" as="geometry" />
          </mxCell>
        </UserObject>
        <mxCell id="7fiDD-AKE3JGjJnr2jTb-48" value="&lt;b style=&quot;border-color: var(--border-color); color: rgb(0, 0, 0); font-family: Helvetica; font-style: normal; font-variant-ligatures: normal; font-variant-caps: normal; letter-spacing: normal; orphans: 2; text-align: center; text-indent: 0px; text-transform: none; widows: 2; word-spacing: 0px; -webkit-text-stroke-width: 0px; background-color: rgb(251, 251, 251); text-decoration-thickness: initial; text-decoration-style: initial; text-decoration-color: initial;&quot;&gt;&lt;font style=&quot;font-size: 14px;&quot;&gt;&lt;u&gt;How to rebase&lt;/u&gt;&lt;/font&gt;&lt;br&gt;&lt;/b&gt;&lt;br style=&quot;border-color: var(--border-color); color: rgb(0, 0, 0); font-family: Helvetica; font-size: 12px; font-style: normal; font-variant-ligatures: normal; font-variant-caps: normal; font-weight: 400; letter-spacing: normal; orphans: 2; text-align: center; text-indent: 0px; text-transform: none; widows: 2; word-spacing: 0px; -webkit-text-stroke-width: 0px; background-color: rgb(251, 251, 251); text-decoration-thickness: initial; text-decoration-style: initial; text-decoration-color: initial;&quot;&gt;&lt;div style=&quot;border-color: var(--border-color); color: rgb(0, 0, 0); font-family: Helvetica; font-size: 12px; font-style: normal; font-variant-ligatures: normal; font-variant-caps: normal; font-weight: 400; letter-spacing: normal; orphans: 2; text-indent: 0px; text-transform: none; widows: 2; word-spacing: 0px; -webkit-text-stroke-width: 0px; background-color: rgb(251, 251, 251); text-decoration-thickness: initial; text-decoration-style: initial; text-decoration-color: initial; text-align: left;&quot;&gt;- git checkout &amp;lt;destination_branch&amp;gt;&lt;/div&gt;&lt;div style=&quot;border-color: var(--border-color); color: rgb(0, 0, 0); font-family: Helvetica; font-size: 12px; font-style: normal; font-variant-ligatures: normal; font-variant-caps: normal; font-weight: 400; letter-spacing: normal; orphans: 2; text-indent: 0px; text-transform: none; widows: 2; word-spacing: 0px; -webkit-text-stroke-width: 0px; background-color: rgb(251, 251, 251); text-decoration-thickness: initial; text-decoration-style: initial; text-decoration-color: initial; text-align: left;&quot;&gt;&lt;span style=&quot;border-color: var(--border-color); background-color: initial;&quot;&gt;- git pull&lt;/span&gt;&lt;/div&gt;&lt;div style=&quot;border-color: var(--border-color); color: rgb(0, 0, 0); font-family: Helvetica; font-size: 12px; font-style: normal; font-variant-ligatures: normal; font-variant-caps: normal; font-weight: 400; letter-spacing: normal; orphans: 2; text-indent: 0px; text-transform: none; widows: 2; word-spacing: 0px; -webkit-text-stroke-width: 0px; background-color: rgb(251, 251, 251); text-decoration-thickness: initial; text-decoration-style: initial; text-decoration-color: initial; text-align: left;&quot;&gt;&lt;span style=&quot;border-color: var(--border-color); background-color: initial;&quot;&gt;- git checkout &amp;lt;your_branch&amp;gt;&lt;/span&gt;&lt;/div&gt;&lt;div style=&quot;border-color: var(--border-color); color: rgb(0, 0, 0); font-family: Helvetica; font-size: 12px; font-style: normal; font-variant-ligatures: normal; font-variant-caps: normal; font-weight: 400; letter-spacing: normal; orphans: 2; text-indent: 0px; text-transform: none; widows: 2; word-spacing: 0px; -webkit-text-stroke-width: 0px; background-color: rgb(251, 251, 251); text-decoration-thickness: initial; text-decoration-style: initial; text-decoration-color: initial; text-align: left;&quot;&gt;&lt;span style=&quot;border-color: var(--border-color); background-color: initial;&quot;&gt;- git pull&lt;/span&gt;&lt;/div&gt;&lt;div style=&quot;border-color: var(--border-color); color: rgb(0, 0, 0); font-family: Helvetica; font-size: 12px; font-style: normal; font-variant-ligatures: normal; font-variant-caps: normal; font-weight: 400; letter-spacing: normal; orphans: 2; text-indent: 0px; text-transform: none; widows: 2; word-spacing: 0px; -webkit-text-stroke-width: 0px; background-color: rgb(251, 251, 251); text-decoration-thickness: initial; text-decoration-style: initial; text-decoration-color: initial; text-align: left;&quot;&gt;&lt;span style=&quot;border-color: var(--border-color); background-color: initial;&quot;&gt;- git rebase &amp;lt;destination_branch&amp;gt;&lt;/span&gt;&lt;/div&gt;" style="rounded=0;whiteSpace=wrap;html=1;" parent="1" vertex="1">
          <mxGeometry x="928" y="4" width="220" height="150" as="geometry" />
        </mxCell>
        <mxCell id="qlPfx9N4xRwyqrv7Mhjt-4" style="edgeStyle=orthogonalEdgeStyle;rounded=0;orthogonalLoop=1;jettySize=auto;html=1;entryX=0.5;entryY=1;entryDx=0;entryDy=0;" parent="1" source="qlPfx9N4xRwyqrv7Mhjt-2" target="7fiDD-AKE3JGjJnr2jTb-33" edge="1">
          <mxGeometry relative="1" as="geometry" />
        </mxCell>
        <UserObject label="Thêm tag cho MR" link="https://git.rabiloo.net/mobile/work-flow/git-flow/-/blob/main/gitflow.md?ref_type=heads#tag-naming" id="qlPfx9N4xRwyqrv7Mhjt-2">
          <mxCell style="rounded=0;whiteSpace=wrap;html=1;" parent="1" vertex="1">
            <mxGeometry x="808" y="342" width="120" height="40" as="geometry" />
          </mxCell>
        </UserObject>
        <UserObject label="feature/example" link="https://git.rabiloo.net/mobile/work-flow/git-flow/-/blob/main/gitflow.md?ref_type=heads#branch-naming" id="qlPfx9N4xRwyqrv7Mhjt-5">
          <mxCell style="rounded=0;whiteSpace=wrap;html=1;fontStyle=1;fontSize=23;" parent="1" vertex="1">
            <mxGeometry x="455" y="102" width="260" height="60" as="geometry" />
          </mxCell>
        </UserObject>
        <UserObject label="hotfix/example (version mới nhất)" link="https://git.rabiloo.net/mobile/work-flow/git-flow/-/blob/main/gitflow.md?ref_type=heads#branch-naming" id="qlPfx9N4xRwyqrv7Mhjt-7">
          <mxCell style="rounded=0;whiteSpace=wrap;html=1;fontStyle=1;fontSize=23;" parent="1" vertex="1">
            <mxGeometry x="354" y="440" width="462" height="60" as="geometry" />
          </mxCell>
        </UserObject>
        <mxCell id="y3Y4lg6fOU0EaFiOg16w-2" style="edgeStyle=orthogonalEdgeStyle;rounded=0;orthogonalLoop=1;jettySize=auto;html=1;exitX=1;exitY=0.5;exitDx=0;exitDy=0;entryX=0;entryY=0.5;entryDx=0;entryDy=0;" edge="1" parent="1" source="y3Y4lg6fOU0EaFiOg16w-1" target="7fiDD-AKE3JGjJnr2jTb-16">
          <mxGeometry relative="1" as="geometry" />
        </mxCell>
        <mxCell id="y3Y4lg6fOU0EaFiOg16w-1" value="rebase nhánh &lt;b&gt;master&lt;/b&gt;&amp;nbsp;vào nhánh hiện tại&amp;nbsp;" style="rounded=0;whiteSpace=wrap;html=1;" vertex="1" parent="1">
          <mxGeometry x="250" y="701" width="140" height="60" as="geometry" />
        </mxCell>
        <mxCell id="y3Y4lg6fOU0EaFiOg16w-5" style="edgeStyle=orthogonalEdgeStyle;rounded=0;orthogonalLoop=1;jettySize=auto;html=1;entryX=0;entryY=0.5;entryDx=0;entryDy=0;exitX=1;exitY=0.5;exitDx=0;exitDy=0;" edge="1" parent="1" target="y3Y4lg6fOU0EaFiOg16w-6" source="7fiDD-AKE3JGjJnr2jTb-19">
          <mxGeometry relative="1" as="geometry">
            <mxPoint x="848" y="715.31" as="sourcePoint" />
          </mxGeometry>
        </mxCell>
        <mxCell id="y3Y4lg6fOU0EaFiOg16w-7" style="edgeStyle=orthogonalEdgeStyle;rounded=0;orthogonalLoop=1;jettySize=auto;html=1;exitX=1;exitY=0.5;exitDx=0;exitDy=0;entryX=0.5;entryY=1;entryDx=0;entryDy=0;" edge="1" parent="1" source="y3Y4lg6fOU0EaFiOg16w-6" target="7fiDD-AKE3JGjJnr2jTb-18">
          <mxGeometry relative="1" as="geometry" />
        </mxCell>
        <UserObject label="Thêm tag cho MR" link="https://git.rabiloo.net/mobile/work-flow/git-flow/-/blob/main/gitflow.md?ref_type=heads#tag-naming" id="y3Y4lg6fOU0EaFiOg16w-6">
          <mxCell style="rounded=0;whiteSpace=wrap;html=1;" vertex="1" parent="1">
            <mxGeometry x="878" y="741.31" width="120" height="60" as="geometry" />
          </mxCell>
        </UserObject>
        <mxCell id="y3Y4lg6fOU0EaFiOg16w-9" style="edgeStyle=orthogonalEdgeStyle;rounded=0;orthogonalLoop=1;jettySize=auto;html=1;entryX=0;entryY=0.5;entryDx=0;entryDy=0;" edge="1" parent="1" source="y3Y4lg6fOU0EaFiOg16w-10" target="y3Y4lg6fOU0EaFiOg16w-12">
          <mxGeometry relative="1" as="geometry" />
        </mxCell>
        <mxCell id="y3Y4lg6fOU0EaFiOg16w-10" value="Pull và Checkout từ nhánh &lt;b&gt;master (tại tag của version cần update)&lt;/b&gt;" style="rounded=0;whiteSpace=wrap;html=1;" vertex="1" parent="1">
          <mxGeometry x="30" y="1040" width="120" height="110" as="geometry" />
        </mxCell>
        <UserObject label="Commit code" link="https://git.rabiloo.net/mobile/work-flow/git-flow/-/blob/main/gitflow.md?ref_type=heads#commit-message-naming" id="y3Y4lg6fOU0EaFiOg16w-12">
          <mxCell style="rounded=0;whiteSpace=wrap;html=1;" vertex="1" parent="1">
            <mxGeometry x="200" y="1194.62" width="100" height="40" as="geometry" />
          </mxCell>
        </UserObject>
        <mxCell id="y3Y4lg6fOU0EaFiOg16w-13" style="edgeStyle=orthogonalEdgeStyle;rounded=0;orthogonalLoop=1;jettySize=auto;html=1;entryX=0;entryY=0.5;entryDx=0;entryDy=0;" edge="1" parent="1" target="y3Y4lg6fOU0EaFiOg16w-28">
          <mxGeometry relative="1" as="geometry">
            <Array as="points">
              <mxPoint x="600" y="1124.31" />
              <mxPoint x="600" y="1006.31" />
              <mxPoint x="668" y="1006.31" />
            </Array>
            <mxPoint x="520" y="1124.31" as="sourcePoint" />
            <mxPoint x="668" y="1005.9949999999999" as="targetPoint" />
          </mxGeometry>
        </mxCell>
        <mxCell id="y3Y4lg6fOU0EaFiOg16w-14" style="edgeStyle=orthogonalEdgeStyle;rounded=0;orthogonalLoop=1;jettySize=auto;html=1;exitX=1;exitY=0.5;exitDx=0;exitDy=0;entryX=0;entryY=0.5;entryDx=0;entryDy=0;" edge="1" parent="1" source="y3Y4lg6fOU0EaFiOg16w-15" target="y3Y4lg6fOU0EaFiOg16w-19">
          <mxGeometry relative="1" as="geometry">
            <Array as="points">
              <mxPoint x="520" y="1124" />
              <mxPoint x="600" y="1124" />
              <mxPoint x="600" y="1225" />
            </Array>
            <mxPoint x="520" y="1124.31" as="sourcePoint" />
          </mxGeometry>
        </mxCell>
        <mxCell id="y3Y4lg6fOU0EaFiOg16w-15" value="git push -f" style="rounded=0;whiteSpace=wrap;html=1;" vertex="1" parent="1">
          <mxGeometry x="430" y="1100" width="110" height="60" as="geometry" />
        </mxCell>
        <mxCell id="y3Y4lg6fOU0EaFiOg16w-16" style="edgeStyle=orthogonalEdgeStyle;rounded=0;orthogonalLoop=1;jettySize=auto;html=1;entryX=0;entryY=0.5;entryDx=0;entryDy=0;exitX=1;exitY=0.5;exitDx=0;exitDy=0;" edge="1" parent="1" source="y3Y4lg6fOU0EaFiOg16w-28" target="y3Y4lg6fOU0EaFiOg16w-21">
          <mxGeometry relative="1" as="geometry">
            <mxPoint x="838" y="1006" as="sourcePoint" />
          </mxGeometry>
        </mxCell>
        <mxCell id="y3Y4lg6fOU0EaFiOg16w-18" value="Request reviewer&lt;br&gt;review và merge&amp;nbsp;" style="rounded=0;whiteSpace=wrap;html=1;" vertex="1" parent="1">
          <mxGeometry x="1006" y="1088.31" width="124" height="50" as="geometry" />
        </mxCell>
        <mxCell id="y3Y4lg6fOU0EaFiOg16w-19" value="&lt;b&gt;cherry-pick&lt;/b&gt; nhánh hiện tại&lt;br&gt;Tạo MR vào nhánh &lt;b&gt;dev&lt;/b&gt;" style="rounded=0;whiteSpace=wrap;html=1;" vertex="1" parent="1">
          <mxGeometry x="668" y="1188.62" width="170" height="72" as="geometry" />
        </mxCell>
        <mxCell id="y3Y4lg6fOU0EaFiOg16w-20" style="edgeStyle=orthogonalEdgeStyle;rounded=0;orthogonalLoop=1;jettySize=auto;html=1;entryX=0.5;entryY=0;entryDx=0;entryDy=0;exitX=1;exitY=0.5;exitDx=0;exitDy=0;" edge="1" parent="1" source="y3Y4lg6fOU0EaFiOg16w-21" target="y3Y4lg6fOU0EaFiOg16w-18">
          <mxGeometry relative="1" as="geometry" />
        </mxCell>
        <UserObject label="Thêm tag cho MR" link="https://git.rabiloo.net/mobile/work-flow/git-flow/-/blob/main/gitflow.md?ref_type=heads#tag-naming" id="y3Y4lg6fOU0EaFiOg16w-21">
          <mxCell style="rounded=0;whiteSpace=wrap;html=1;" vertex="1" parent="1">
            <mxGeometry x="878" y="976" width="120" height="60" as="geometry" />
          </mxCell>
        </UserObject>
        <UserObject label="hotfix/example (không phải version mới nhất)" link="https://git.rabiloo.net/mobile/work-flow/git-flow/-/blob/main/gitflow.md?ref_type=heads#branch-naming" id="y3Y4lg6fOU0EaFiOg16w-22">
          <mxCell style="rounded=0;whiteSpace=wrap;html=1;fontStyle=1;fontSize=23;" vertex="1" parent="1">
            <mxGeometry x="314" y="870" width="542" height="60" as="geometry" />
          </mxCell>
        </UserObject>
        <mxCell id="y3Y4lg6fOU0EaFiOg16w-23" style="edgeStyle=orthogonalEdgeStyle;rounded=0;orthogonalLoop=1;jettySize=auto;html=1;exitX=1;exitY=0.5;exitDx=0;exitDy=0;entryX=0.5;entryY=1;entryDx=0;entryDy=0;" edge="1" parent="1" source="y3Y4lg6fOU0EaFiOg16w-12" target="y3Y4lg6fOU0EaFiOg16w-29">
          <mxGeometry relative="1" as="geometry">
            <mxPoint x="390" y="1161" as="sourcePoint" />
          </mxGeometry>
        </mxCell>
        <mxCell id="y3Y4lg6fOU0EaFiOg16w-25" style="edgeStyle=orthogonalEdgeStyle;rounded=0;orthogonalLoop=1;jettySize=auto;html=1;entryX=0;entryY=0.5;entryDx=0;entryDy=0;exitX=1;exitY=0.5;exitDx=0;exitDy=0;" edge="1" parent="1" source="y3Y4lg6fOU0EaFiOg16w-19" target="y3Y4lg6fOU0EaFiOg16w-27">
          <mxGeometry relative="1" as="geometry">
            <mxPoint x="848" y="1168.62" as="sourcePoint" />
          </mxGeometry>
        </mxCell>
        <mxCell id="y3Y4lg6fOU0EaFiOg16w-26" style="edgeStyle=orthogonalEdgeStyle;rounded=0;orthogonalLoop=1;jettySize=auto;html=1;exitX=1;exitY=0.5;exitDx=0;exitDy=0;entryX=0.5;entryY=1;entryDx=0;entryDy=0;" edge="1" parent="1" source="y3Y4lg6fOU0EaFiOg16w-27" target="y3Y4lg6fOU0EaFiOg16w-18">
          <mxGeometry relative="1" as="geometry" />
        </mxCell>
        <UserObject label="Thêm tag cho MR" link="https://git.rabiloo.net/mobile/work-flow/git-flow/-/blob/main/gitflow.md?ref_type=heads#tag-naming" id="y3Y4lg6fOU0EaFiOg16w-27">
          <mxCell style="rounded=0;whiteSpace=wrap;html=1;" vertex="1" parent="1">
            <mxGeometry x="878" y="1194.62" width="120" height="60" as="geometry" />
          </mxCell>
        </UserObject>
        <mxCell id="y3Y4lg6fOU0EaFiOg16w-28" value="&lt;b&gt;cherry-pick&lt;/b&gt; nhánh hiện tại&lt;br&gt;Tạo MR vào nhánh &lt;b&gt;master&lt;/b&gt;" style="rounded=0;whiteSpace=wrap;html=1;" vertex="1" parent="1">
          <mxGeometry x="668" y="970" width="170" height="72" as="geometry" />
        </mxCell>
        <mxCell id="y3Y4lg6fOU0EaFiOg16w-30" style="edgeStyle=orthogonalEdgeStyle;rounded=0;orthogonalLoop=1;jettySize=auto;html=1;entryX=0.5;entryY=0;entryDx=0;entryDy=0;" edge="1" parent="1" source="y3Y4lg6fOU0EaFiOg16w-29" target="y3Y4lg6fOU0EaFiOg16w-15">
          <mxGeometry relative="1" as="geometry" />
        </mxCell>
        <mxCell id="y3Y4lg6fOU0EaFiOg16w-29" value="rebase nhánh &lt;b&gt;master (tại tag của version cần update)&lt;/b&gt;&amp;nbsp;vào nhánh hiện tại&amp;nbsp;" style="rounded=0;whiteSpace=wrap;html=1;" vertex="1" parent="1">
          <mxGeometry x="240" y="1020" width="160" height="100" as="geometry" />
        </mxCell>
      </root>
    </mxGraphModel>
  </diagram>
</mxfile>
